<!DOCTYPE svg PUBLIC "-//W3C//DTD SVG 20010904//EN" "http://www.w3.org/TR/2001/REC-SVG-20010904/DTD/svg10.dtd">
<svg version="1.0" xmlns="http://www.w3.org/2000/svg" width="1300px" height="919px" viewBox="0 0 13000 9190" preserveAspectRatio="xMidYMid meet">
<g id="layer1" fill="#e8dde2" stroke="none">
 <path d="M5495 7671 c-7 -12 12 -24 25 -16 11 7 4 25 -10 25 -5 0 -11 -4 -15 -9z"/>
 <path d="M5765 6720 c-4 -6 -3 -16 3 -22 6 -6 12 -6 17 2 4 6 3 16 -3 22 -6 6 -12 6 -17 -2z"/>
 <path d="M4445 1730 c-9 -14 2 -29 20 -26 25 4 28 14 6 25 -13 7 -22 8 -26 1z"/>
 <path d="M4645 1570 c-4 -6 -3 -16 3 -22 6 -6 12 -6 17 2 4 6 3 16 -3 22 -6 6 -12 6 -17 -2z"/>
 <path d="M4745 1570 c-4 -6 -3 -16 3 -22 6 -6 12 -6 17 2 4 6 3 16 -3 22 -6 6 -12 6 -17 -2z"/>
 <path d="M4015 1481 c-7 -12 12 -24 25 -16 11 7 4 25 -10 25 -5 0 -11 -4 -15 -9z"/>
 <path d="M5467 1353 c-11 -19 0 -58 16 -58 9 0 17 5 16 10 -1 6 -6 9 -12 7 -6 -2 -6 2 1 11 10 11 9 17 -2 26 -8 7 -16 8 -19 4z"/>
 <path d="M5015 1340 c-4 -6 -3 -16 3 -22 6 -6 12 -6 17 2 4 6 3 16 -3 22 -6 6 -12 6 -17 -2z"/>
 <path d="M5755 1210 c-4 -6 -3 -16 3 -22 6 -6 12 -6 17 2 4 6 3 16 -3 22 -6 6 -12 6 -17 -2z"/>
 <path d="M5306 1151 c-3 -5 1 -14 8 -20 16 -13 32 2 21 19 -8 12 -22 13 -29 1z"/>
 <path d="M5135 1000 c-11 -18 5 -31 26 -20 11 6 17 15 14 21 -8 12 -32 12 -40 -1z"/>
 <path d="M5025 981 c-7 -12 12 -24 25 -16 11 7 4 25 -10 25 -5 0 -11 -4 -15 -9z"/>
 <path d="M5315 940 c-11 -17 5 -32 21 -19 7 6 11 15 8 20 -7 12 -21 11 -29 -1z"/>
 <path d="M4960 821 c-7 -13 -7 -22 0 -26 13 -8 30 3 30 20 0 23 -18 27 -30 6z"/>
 <path d="M5875 660 c-4 -6 -3 -16 3 -22 6 -6 12 -6 17 2 4 6 3 16 -3 22 -6 6 -12 6 -17 -2z"/>
 <path d="M5705 511 c-7 -12 12 -24 25 -16 11 7 4 25 -10 25 -5 0 -11 -4 -15 -9z"/>
 <path d="M5505 441 c-7 -12 12 -24 25 -16 11 7 4 25 -10 25 -5 0 -11 -4 -15 -9z"/>
 <path d="M5224 419 c-10 -17 13 -36 27 -22 12 12 4 33 -11 33 -5 0 -12 -5 -16 -11z"/>
 <path d="M5395 360 c-4 -6 -10 -8 -15 -5 -5 3 -11 1 -14 -4 -4 -5 -2 -12 3 -15 5 -4 12 -2 16 4 4 6 10 8 15 5 5 -3 11 -1 14 4 4 5 2 12 -3 15 -5 4 -12 2 -16 -4z"/>
 </g>
<g id="layer2" fill="#e1e3e1" stroke="none">
 <path d="M4215 5270 c-4 -6 -3 -16 3 -22 6 -6 12 -6 17 2 4 6 3 16 -3 22 -6 6 -12 6 -17 -2z"/>
 <path d="M2165 4016 c-11 -8 -14 -16 -8 -19 6 -4 18 0 28 7 11 8 14 16 8 19 -6 4 -18 0 -28 -7z"/>
 <path d="M6235 3931 c-7 -12 12 -24 25 -16 11 7 4 25 -10 25 -5 0 -11 -4 -15 -9z"/>
 <path d="M5885 3871 c-7 -12 12 -24 25 -16 11 7 4 25 -10 25 -5 0 -11 -4 -15 -9z"/>
 <path d="M2201 3856 c-7 -8 -8 -17 -3 -20 6 -3 15 1 21 8 7 8 8 17 3 20 -6 3 -15 -1 -21 -8z"/>
 <path d="M1811 3846 c-7 -8 -8 -17 -3 -20 6 -3 15 1 21 8 7 8 8 17 3 20 -6 3 -15 -1 -21 -8z"/>
 <path d="M5065 3800 c-4 -6 -3 -16 3 -22 6 -6 12 -6 17 2 4 6 3 16 -3 22 -6 6 -12 6 -17 -2z"/>
 <path d="M1721 3756 c-7 -8 -8 -17 -3 -20 6 -3 15 1 21 8 7 8 8 17 3 20 -6 3 -15 -1 -21 -8z"/>
 <path d="M1761 3726 c-7 -8 -8 -17 -3 -20 6 -3 15 1 21 8 7 8 8 17 3 20 -6 3 -15 -1 -21 -8z"/>
 <path d="M7396 3662 c-3 -6 1 -15 8 -21 8 -7 17 -8 20 -3 3 6 -1 15 -8 21 -8 7 -17 8 -20 3z"/>
 <path d="M1875 3646 c-11 -8 -14 -16 -8 -19 6 -4 18 0 28 7 11 8 14 16 8 19 -6 4 -18 0 -28 -7z"/>
 <path d="M4545 3600 c-4 -6 -3 -16 3 -22 6 -6 12 -6 17 2 4 6 3 16 -3 22 -6 6 -12 6 -17 -2z"/>
 <path d="M1645 3531 c-7 -12 12 -24 25 -16 11 7 4 25 -10 25 -5 0 -11 -4 -15 -9z"/>
 <path d="M2971 3516 c-7 -8 -8 -17 -3 -20 6 -3 15 1 21 8 7 8 8 17 3 20 -6 3 -15 -1 -21 -8z"/>
 <path d="M4535 3500 c-4 -6 -3 -16 3 -22 6 -6 12 -6 17 2 4 6 3 16 -3 22 -6 6 -12 6 -17 -2z"/>
 <path d="M7861 3226 c-7 -8 -8 -17 -3 -20 6 -3 15 1 21 8 7 8 8 17 3 20 -6 3 -15 -1 -21 -8z"/>
 <path d="M8056 3192 c-3 -6 1 -15 8 -21 8 -7 17 -8 20 -3 3 6 -1 15 -8 21 -8 7 -17 8 -20 3z"/>
 <path d="M3675 3010 c-4 -6 -3 -16 3 -22 6 -6 12 -6 17 2 4 6 3 16 -3 22 -6 6 -12 6 -17 -2z"/>
 <path d="M5105 3000 c-4 -6 -3 -16 3 -22 6 -6 12 -6 17 2 4 6 3 16 -3 22 -6 6 -12 6 -17 -2z"/>
 <path d="M8225 2941 c-7 -12 12 -24 25 -16 11 7 4 25 -10 25 -5 0 -11 -4 -15 -9z"/>
 <path d="M8076 2932 c-3 -6 1 -15 8 -21 8 -7 17 -8 20 -3 3 6 -1 15 -8 21 -8 7 -17 8 -20 3z"/>
 <path d="M3484 2906 c-8 -21 3 -49 16 -41 5 3 10 15 10 25 0 25 -18 36 -26 16z"/>
 <path d="M2685 2790 c-4 -6 -3 -16 3 -22 6 -6 12 -6 17 2 4 6 3 16 -3 22 -6 6 -12 6 -17 -2z"/>
 <path d="M5254 2499 c-10 -17 6 -27 38 -25 21 1 33 7 33 16 0 16 -62 24 -71 9z"/>
 <path d="M5854 2429 c-10 -17 13 -36 27 -22 12 12 4 33 -11 33 -5 0 -12 -5 -16 -11z"/>
 <path d="M5914 2416 c-4 -10 -2 -22 4 -28 8 -8 13 -7 18 6 4 10 2 22 -4 28 -8 8 -13 7 -18 -6z"/>
 <path d="M5825 2330 c-4 -6 -3 -16 3 -22 6 -6 12 -6 17 2 4 6 3 16 -3 22 -6 6 -12 6 -17 -2z"/>
 <path d="M4764 2057 c-8 -21 1 -47 16 -47 19 0 23 31 7 48 -15 14 -17 14 -23 -1z"/>
 <path d="M4815 2040 c-4 -6 -3 -16 3 -22 6 -6 12 -6 17 2 4 6 3 16 -3 22 -6 6 -12 6 -17 -2z"/>
 <path d="M4774 1969 c-10 -17 13 -36 27 -22 12 12 4 33 -11 33 -5 0 -12 -5 -16 -11z"/>
 <path d="M5565 1740 c-11 -17 5 -32 21 -19 7 6 11 15 8 20 -7 12 -21 11 -29 -1z"/>
 <path d="M4211 1706 c-7 -8 -8 -17 -3 -20 6 -3 15 1 21 8 7 8 8 17 3 20 -6 3 -15 -1 -21 -8z"/>
 <path d="M4285 1670 c-4 -6 -3 -16 3 -22 6 -6 12 -6 17 2 4 6 3 16 -3 22 -6 6 -12 6 -17 -2z"/>
 <path d="M5610 1624 c-9 -10 -10 -18 -3 -25 8 -8 14 -5 22 9 13 25 -2 38 -19 16z"/>
 <path d="M5516 1621 c-3 -5 1 -14 8 -20 16 -13 32 2 21 19 -8 12 -22 13 -29 1z"/>
 <path d="M4705 1610 c-4 -6 -3 -16 3 -22 6 -6 12 -6 17 2 4 6 3 16 -3 22 -6 6 -12 6 -17 -2z"/>
 <path d="M5565 1540 c-11 -17 5 -32 21 -19 7 6 11 15 8 20 -7 12 -21 11 -29 -1z"/>
 <path d="M4686 1522 c-3 -6 1 -15 8 -21 8 -7 17 -8 20 -3 3 6 -1 15 -8 21 -8 7 -17 8 -20 3z"/>
 <path d="M4777 1524 c-3 -4 -2 -16 4 -26 8 -15 14 -17 22 -9 8 8 7 15 -4 26 -8 9 -18 13 -22 9z"/>
 <path d="M4081 1502 c-13 -25 2 -38 19 -16 9 10 10 18 3 25 -8 8 -14 5 -22 -9z"/>
 <path d="M4064 1446 c-8 -21 3 -49 16 -41 5 3 10 15 10 25 0 25 -18 36 -26 16z"/>
 <path d="M4947 1434 c-3 -4 3 -20 15 -36 14 -20 24 -26 31 -19 7 7 7 14 -1 23 -5 7 -10 18 -11 23 0 12 -24 18 -34 9z"/>
 <path d="M4795 1401 c-7 -12 12 -24 25 -16 11 7 4 25 -10 25 -5 0 -11 -4 -15 -9z"/>
 <path d="M5146 1371 c-9 -15 23 -36 35 -24 8 8 5 14 -9 22 -12 6 -23 7 -26 2z"/>
 <path d="M5521 1337 c-6 -8 -8 -17 -5 -20 4 -3 -18 -5 -48 -3 -47 4 -58 0 -87 -23 -21 -17 -31 -33 -27 -40 5 -8 19 -2 47 19 23 19 44 28 51 24 7 -5 19 -9 28 -9 8 -1 25 -5 37 -9 23 -7 41 8 23 19 -7 5 -5 11 5 19 15 10 15 14 2 24 -11 10 -17 9 -26 -1z"/>
 <path d="M5036 1321 c-3 -5 1 -14 8 -20 16 -13 32 2 21 19 -8 12 -22 13 -29 1z"/>
 <path d="M5576 1321 c-3 -5 1 -14 8 -20 16 -13 32 2 21 19 -8 12 -22 13 -29 1z"/>
 <path d="M4065 1310 c-4 -6 -3 -16 3 -22 6 -6 12 -6 17 2 4 6 3 16 -3 22 -6 6 -12 6 -17 -2z"/>
 <path d="M4515 1291 c-4 -8 -1 -19 8 -28 19 -20 30 -1 13 22 -10 14 -15 15 -21 6z"/>
 <path d="M4976 1268 c-13 -39 -15 -67 -7 -73 12 -7 31 26 31 54 0 23 -18 38 -24 19z"/>
 <path d="M5105 1271 c-8 -14 37 -43 49 -31 6 6 4 15 -4 25 -14 17 -36 20 -45 6z"/>
 <path d="M4075 1240 c-11 -17 5 -32 21 -19 7 6 11 15 8 20 -7 12 -21 11 -29 -1z"/>
 <path d="M4535 1241 c-7 -12 12 -24 25 -16 11 7 4 25 -10 25 -5 0 -11 -4 -15 -9z"/>
 <path d="M5195 1240 c-10 -17 12 -37 25 -24 8 8 6 15 -4 23 -10 9 -16 9 -21 1z"/>
 <path d="M5255 1231 c-7 -12 12 -24 25 -16 11 7 4 25 -10 25 -5 0 -11 -4 -15 -9z"/>
 <path d="M4035 1210 c-11 -17 5 -32 21 -19 7 6 11 15 8 20 -7 12 -21 11 -29 -1z"/>
 <path d="M5885 1150 c-10 -17 12 -37 25 -24 8 8 6 15 -4 23 -10 9 -16 9 -21 1z"/>
 <path d="M5194 1139 c-3 -6 -1 -16 4 -21 13 -13 45 8 36 23 -7 12 -31 11 -40 -2z"/>
 <path d="M5845 1140 c-10 -17 22 -47 35 -34 7 7 4 16 -9 28 -14 12 -21 14 -26 6z"/>
 <path d="M5091 1056 c-13 -14 -20 -29 -16 -35 9 -15 28 -2 21 15 -3 8 0 11 8 8 17 -7 32 14 19 27 -6 6 -18 0 -32 -15z"/>
 <path d="M5246 1071 c-3 -5 1 -14 8 -20 16 -13 32 2 21 19 -8 12 -22 13 -29 1z"/>
 <path d="M5945 1061 c-7 -12 12 -24 25 -16 11 7 4 25 -10 25 -5 0 -11 -4 -15 -9z"/>
 <path d="M5190 1045 c-19 -23 -1 -39 21 -19 10 9 16 21 13 25 -8 13 -20 11 -34 -6z"/>
 <path d="M4136 981 c-3 -5 1 -14 8 -20 16 -13 32 2 21 19 -8 12 -22 13 -29 1z"/>
 <path d="M4197 963 c-9 -9 33 -54 44 -47 5 3 2 16 -7 30 -17 25 -26 29 -37 17z"/>
 <path d="M5305 940 c-4 -6 -3 -16 3 -22 6 -6 12 -6 17 2 4 6 3 16 -3 22 -6 6 -12 6 -17 -2z"/>
 <path d="M5995 940 c-4 -6 -3 -16 3 -22 6 -6 12 -6 17 2 4 6 3 16 -3 22 -6 6 -12 6 -17 -2z"/>
 <path d="M4185 901 c-7 -12 12 -24 25 -16 11 7 4 25 -10 25 -5 0 -11 -4 -15 -9z"/>
 <path d="M4255 891 c-7 -12 12 -24 25 -16 11 7 4 25 -10 25 -5 0 -11 -4 -15 -9z"/>
 <path d="M5994 886 c-8 -21 4 -52 15 -40 15 15 17 47 4 51 -7 3 -16 -2 -19 -11z"/>
 <path d="M5455 880 c-10 -17 12 -37 25 -24 8 8 6 15 -4 23 -10 9 -16 9 -21 1z"/>
 <path d="M4831 866 c-7 -8 -8 -17 -3 -20 6 -3 15 1 21 8 7 8 8 17 3 20 -6 3 -15 -1 -21 -8z"/>
 <path d="M5296 861 c-10 -15 3 -33 19 -27 7 2 17 0 23 -6 6 -6 12 -6 16 1 10 15 -3 33 -19 27 -7 -2 -17 0 -23 6 -6 6 -12 6 -16 -1z"/>
 <path d="M5414 856 c-13 -10 -16 -18 -8 -25 7 -8 16 -7 30 3 13 10 16 18 8 25 -7 8 -16 7 -30 -3z"/>
 <path d="M5015 650 c-4 -6 -3 -16 3 -22 6 -6 12 -6 17 2 4 6 3 16 -3 22 -6 6 -12 6 -17 -2z"/>
 <path d="M4946 631 c-3 -5 1 -14 8 -20 16 -13 32 2 21 19 -8 12 -22 13 -29 1z"/>
 <path d="M5781 576 c-9 -10 -9 -16 -1 -21 17 -10 37 12 24 25 -8 8 -15 6 -23 -4z"/>
 <path d="M5726 537 c-25 -18 -12 -39 17 -28 23 9 30 32 12 38 -6 2 -19 -3 -29 -10z"/>
 <path d="M5615 480 c-10 -17 12 -37 25 -24 8 8 6 15 -4 23 -10 9 -16 9 -21 1z"/>
 <path d="M5685 460 c-11 -17 5 -32 21 -19 7 6 11 15 8 20 -7 12 -21 11 -29 -1z"/>
 <path d="M5644 436 c-4 -10 -2 -22 4 -28 8 -8 13 -7 18 6 4 10 2 22 -4 28 -8 8 -13 7 -18 -6z"/>
 <path d="M5205 420 c-7 -11 20 -32 29 -22 4 4 12 7 17 7 5 0 10 4 12 9 3 11 -51 17 -58 6z"/>
 <path d="M5414 419 c-9 -16 12 -33 31 -25 14 5 15 9 5 21 -15 18 -26 19 -36 4z"/>
 <path d="M5315 409 c-10 -16 5 -31 19 -20 9 7 16 7 23 0 6 -6 17 -8 23 -4 8 5 9 10 1 18 -14 14 -59 18 -66 6z"/>
 <path d="M5170 375 c-10 -12 -9 -16 4 -21 9 -4 20 -4 23 0 4 3 14 -1 23 -9 15 -13 19 -13 29 -2 9 11 8 17 -3 26 -10 9 -16 9 -21 1 -5 -8 -12 -6 -25 5 -15 14 -19 14 -30 0z"/>
 <path d="M5445 371 c-7 -12 12 -24 25 -16 11 7 4 25 -10 25 -5 0 -11 -4 -15 -9z"/>
 </g>
<g id="layer3" fill="#ffffff" stroke="none">
 <path d="M5417 7670 c-45 -28 -107 -108 -107 -137 0 -8 9 -31 19 -51 17 -34 25 -39 78 -50 79 -16 97 -15 116 6 41 45 0 84 -75 72 -62 -9 -70 -3 -62 48 8 48 35 76 87 90 87 24 125 -22 143 -168 8 -70 -20 -112 -80 -124 -137 -25 -368 98 -439 233 -22 43 -39 30 -30 -24 5 -32 20 -53 78 -110 101 -99 213 -152 340 -161 60 -4 77 -2 115 18 60 30 80 72 80 162 0 58 -5 77 -31 123 -60 104 -142 130 -232 73z"/>
 <path d="M4076 7635 c-55 -19 -86 -45 -108 -87 -26 -50 -11 -107 38 -144 30 -23 44 -27 102 -26 78 1 133 21 180 65 33 32 42 73 20 95 -19 19 -63 14 -83 -8 -19 -21 -17 -23 30 -20 24 2 27 0 17 -12 -23 -28 -144 -78 -190 -78 -24 0 -62 48 -62 79 0 46 48 76 143 92 178 30 287 -45 262 -178 -11 -59 -70 -108 -180 -148 -110 -40 -213 -28 -293 33 -26 20 -35 22 -45 13 -9 -10 -3 -20 28 -47 22 -18 55 -39 73 -45 l32 -11 -65 -71 c-152 -167 -215 -334 -214 -567 1 -141 10 -202 44 -305 91 -276 204 -445 490 -730 168 -168 284 -298 316 -356 8 -13 24 -35 35 -49 62 -73 264 -459 264 -504 0 -14 6 -45 14 -68 115 -360 162 -787 149 -1353 -1 -44 -2 -91 -1 -105 0 -38 -21 -262 -27 -290 -7 -30 16 -67 34 -56 24 15 33 63 46 245 21 274 27 593 16 796 -16 281 -24 345 -73 575 -7 30 -13 62 -14 70 -7 58 -88 312 -136 425 -29 69 -116 241 -146 290 -116 187 -179 263 -395 475 -196 191 -240 244 -329 392 -72 121 -119 239 -148 377 -19 88 -22 124 -17 225 6 140 31 233 92 343 50 89 175 212 253 248 107 51 124 60 162 93 43 37 80 104 80 148 0 41 -53 128 -92 152 -62 39 -229 53 -302 27z"/>
 <path d="M4616 7450 c-61 -11 -68 -18 -64 -66 3 -45 -13 -43 175 -23 98 10 143 10 240 0 183 -20 168 -22 168 24 0 40 -1 40 -50 53 -60 16 -398 25 -469 12z"/>
 <path d="M5522 7224 c-18 -8 -32 -18 -30 -23 2 -4 32 -32 68 -62 35 -30 85 -85 110 -123 194 -284 77 -591 -277 -727 -13 -5 -33 -13 -45 -18 -81 -31 -154 -43 -308 -48 -155 -5 -212 4 -316 52 -97 44 -124 80 -124 165 0 49 5 73 24 105 31 52 98 108 151 125 22 7 50 16 63 21 60 23 177 -6 217 -52 53 -64 44 -112 -22 -117 -30 -2 -59 7 -121 38 -44 22 -88 40 -96 40 -8 0 -28 -12 -45 -26 -50 -42 -40 -108 22 -141 39 -21 222 -24 278 -5 89 31 124 125 79 216 -16 31 -40 56 -78 82 -54 36 -56 36 -161 37 -86 0 -114 -4 -146 -20 -67 -32 -88 -46 -128 -83 -104 -95 -139 -216 -90 -312 14 -30 92 -108 106 -108 5 0 21 -8 35 -18 118 -81 439 -91 662 -21 215 68 374 191 448 349 32 66 36 87 40 172 7 167 -49 300 -185 436 -46 45 -86 82 -91 81 -4 0 -22 -7 -40 -15z"/>
 <path d="M4217 5513 c-10 -15 -7 -195 4 -303 17 -175 80 -428 188 -765 41 -126 76 -254 101 -370 20 -89 47 -312 39 -319 -6 -6 -152 25 -371 78 -646 156 -1025 300 -1325 504 -29 19 -53 38 -53 41 1 3 19 18 41 34 38 26 44 27 117 21 101 -8 136 9 173 87 25 50 26 59 17 112 -8 47 -18 65 -52 100 -53 54 -111 71 -237 72 -87 0 -101 -3 -154 -30 -32 -16 -72 -47 -89 -68 -27 -34 -31 -46 -31 -101 0 -53 5 -71 33 -115 17 -29 32 -54 32 -56 0 -2 -51 -34 -112 -71 -105 -63 -483 -313 -574 -379 -62 -45 -353 -345 -381 -393 -24 -41 -25 -45 -9 -60 38 -38 183 -7 331 70 65 33 261 155 310 191 200 149 287 251 288 337 0 19 -2 41 -4 48 -4 13 223 161 247 162 6 0 19 -10 30 -21 53 -60 273 -185 453 -258 126 -52 354 -127 511 -170 63 -17 138 -38 165 -46 62 -18 274 -66 465 -105 80 -17 153 -33 164 -36 17 -6 18 -14 12 -106 -27 -387 -262 -948 -523 -1245 -129 -146 -318 -266 -473 -299 -96 -21 -241 -14 -323 15 -219 77 -364 263 -428 549 -29 130 -31 367 -5 492 35 165 110 318 194 396 20 19 66 49 102 67 61 30 71 32 175 32 95 0 120 -4 185 -28 222 -82 399 -245 460 -427 38 -112 11 -194 -77 -242 -87 -47 -183 -60 -183 -25 0 7 9 30 20 52 30 58 26 98 -11 129 -42 35 -71 33 -112 -9 -40 -41 -57 -92 -57 -169 0 -67 18 -106 62 -139 112 -83 282 -51 419 80 136 130 137 295 3 499 -152 231 -439 396 -689 397 -159 1 -271 -49 -386 -171 -150 -159 -229 -415 -216 -702 14 -298 99 -513 272 -686 142 -143 265 -194 463 -194 123 0 204 19 317 75 195 96 373 272 527 521 186 301 328 721 345 1022 l6 102 31 -5 c17 -3 112 -21 211 -39 130 -24 184 -30 193 -23 22 17 -7 32 -90 47 -40 7 -134 25 -208 40 l-135 26 -7 92 c-12 153 -66 386 -147 632 -160 483 -206 698 -214 999 -2 49 -17 76 -30 54z m-1259 -789 c56 -16 97 -50 113 -91 11 -30 -7 -78 -36 -97 -44 -29 -50 -17 -12 22 39 40 47 69 21 79 -14 5 -33 -1 -86 -28 -32 -16 -56 -10 -80 21 -31 40 -75 48 -111 20 -32 -26 -34 -48 -7 -92 26 -44 25 -50 -11 -71 -37 -20 -43 -17 -69 33 -47 93 -32 162 45 199 51 25 156 27 233 5z m-514 -629 c-23 -49 -91 -123 -161 -175 -32 -24 -62 -49 -68 -55 -5 -6 -36 -29 -68 -51 -222 -150 -411 -250 -493 -260 l-49 -6 85 84 c79 78 307 255 416 323 283 178 349 214 352 195 2 -11 -4 -35 -14 -55z"/>
 <path d="M7186 4296 c-58 -22 -106 -74 -113 -123 -10 -76 29 -148 99 -184 22 -11 38 -23 35 -26 -3 -3 -214 -9 -469 -14 -255 -5 -481 -11 -503 -14 -181 -24 -264 -37 -290 -46 -16 -6 -43 -13 -60 -15 -34 -5 -208 -58 -280 -86 -106 -42 -318 -179 -332 -215 -14 -35 17 -28 77 18 72 54 166 106 250 138 30 12 64 25 75 30 105 46 353 91 611 110 207 16 974 15 974 -1 0 -20 98 -166 167 -250 36 -43 120 -127 188 -187 108 -97 176 -167 199 -208 4 -7 -3 -27 -16 -44 -20 -27 -23 -43 -23 -118 0 -81 3 -92 39 -161 65 -127 146 -224 167 -203 8 8 3 23 -19 55 -47 68 -122 225 -122 255 0 2 26 -27 59 -64 121 -141 177 -197 189 -189 9 5 6 18 -9 49 -27 52 -140 216 -191 278 -42 50 -45 61 -24 78 11 10 18 7 33 -14 18 -27 112 -142 183 -225 21 -25 47 -56 57 -69 13 -16 26 -22 37 -18 16 6 14 13 -15 64 -38 67 -98 159 -146 222 -18 24 -31 46 -29 48 15 16 131 -90 223 -203 23 -29 34 -36 43 -28 35 34 -156 258 -254 299 -42 18 -97 20 -114 3 -8 -8 -18 -3 -39 22 -58 69 -139 156 -164 178 -30 25 -180 197 -220 252 -34 47 -95 152 -104 179 -5 17 -2 21 17 21 42 0 170 53 203 85 41 38 51 75 35 125 -22 66 -127 159 -212 188 -60 21 -167 25 -212 8z m129 -47 c82 -21 132 -47 182 -95 35 -33 43 -47 43 -77 0 -47 -22 -66 -103 -89 -95 -27 -104 -24 -59 20 31 29 41 47 46 83 12 81 -9 119 -65 119 -45 0 -57 -23 -46 -91 7 -41 7 -63 -1 -71 -14 -14 -32 -1 -32 25 0 23 -24 96 -41 130 -9 15 -17 18 -45 12 -43 -8 -43 0 -1 25 36 22 64 25 122 9z m-146 -162 c1 -5 -3 -5 -9 -2 -5 3 -10 16 -9 28 0 21 1 21 9 2 5 -11 9 -24 9 -28z"/>
 <path d="M6039 2835 c-3 -2 -24 -6 -46 -8 -23 -2 -50 -12 -59 -22 -26 -26 -46 -66 -40 -82 4 -9 -3 -13 -21 -13 -29 0 -103 -19 -119 -32 -17 -13 -104 -37 -153 -44 -24 -3 -53 -11 -65 -19 -11 -8 -49 -18 -84 -24 -34 -5 -67 -13 -72 -16 -15 -9 -45 -15 -165 -31 -214 -29 -266 -34 -395 -38 -78 -2 -140 -15 -140 -30 0 -1 6 -25 14 -52 8 -27 17 -78 21 -114 4 -36 10 -69 13 -75 7 -11 8 -18 17 -105 4 -42 12 -69 23 -78 12 -9 13 -15 4 -24 -8 -8 -8 -16 0 -32 6 -11 12 -36 14 -56 7 -87 14 -122 24 -135 6 -7 22 -51 35 -97 14 -47 31 -98 40 -114 8 -16 15 -36 15 -44 0 -8 7 -24 15 -34 8 -11 15 -34 15 -50 0 -20 9 -40 24 -54 22 -20 24 -31 24 -105 0 -45 -4 -89 -8 -97 -4 -8 -11 -31 -14 -51 -3 -20 -10 -47 -15 -60 -5 -13 -10 -28 -11 -34 -7 -28 -15 -46 -52 -121 -42 -86 -84 -127 -176 -173 -54 -27 -173 -36 -213 -15 -15 7 -29 11 -31 8 -3 -2 -11 2 -18 11 -7 8 -18 15 -25 15 -19 0 -145 100 -145 115 0 8 -11 22 -24 33 -28 21 -102 158 -111 202 -2 9 -11 34 -20 56 -10 21 -19 53 -20 69 -1 17 -3 30 -4 30 -8 0 -6 153 2 163 5 7 7 15 4 19 -8 7 27 68 60 104 14 15 43 34 66 44 23 9 48 20 56 24 21 10 169 -7 226 -26 51 -18 134 -68 148 -90 4 -7 14 -13 22 -13 29 0 51 -83 34 -128 -12 -33 -58 -82 -76 -82 -8 0 -13 13 -13 38 0 27 -7 45 -23 60 -30 28 -48 28 -75 -1 -27 -29 -31 -107 -7 -127 9 -7 14 -19 11 -26 -8 -22 59 -66 99 -66 45 0 118 46 150 94 14 21 25 40 25 42 0 3 5 17 11 33 20 50 21 104 2 132 -10 14 -16 31 -15 37 1 6 -25 37 -59 68 -66 60 -184 125 -240 132 -19 2 -52 7 -74 12 -66 13 -170 0 -197 -25 -10 -9 -18 -13 -18 -9 0 9 -70 -29 -102 -56 -14 -13 -41 -52 -59 -87 -30 -57 -34 -74 -37 -163 -4 -93 4 -143 35 -228 3 -8 7 -22 8 -30 4 -29 48 -125 70 -150 11 -14 27 -37 34 -51 30 -62 182 -194 259 -226 54 -22 70 -25 147 -26 79 -1 94 2 172 38 61 28 167 129 194 186 56 116 99 261 99 337 0 52 13 69 28 37 7 -14 16 -24 21 -20 5 3 12 1 15 -4 3 -5 15 -7 26 -4 11 3 20 0 20 -5 0 -38 142 -52 196 -20 19 11 34 24 34 28 0 4 8 7 17 6 10 0 18 6 18 14 0 23 80 24 129 1 40 -19 106 -45 116 -46 3 -1 23 -9 45 -19 22 -10 45 -19 51 -20 6 -1 28 -16 50 -32 21 -17 45 -33 53 -36 8 -2 15 -11 17 -20 1 -9 14 -32 28 -51 36 -47 58 -126 57 -202 0 -36 -24 -109 -43 -134 -10 -13 -18 -28 -18 -34 0 -11 -59 -68 -114 -110 -20 -16 -33 -33 -30 -39 4 -7 2 -8 -5 -4 -6 4 -14 1 -17 -8 -3 -8 -12 -12 -20 -9 -8 3 -21 0 -29 -7 -8 -7 -15 -9 -15 -4 0 5 -7 0 -16 -11 -8 -11 -23 -20 -32 -21 -18 -1 -43 -9 -77 -26 -12 -5 -36 -10 -54 -10 -18 -1 -35 -7 -38 -15 -4 -10 -9 -11 -18 -3 -8 7 -21 7 -38 1 -17 -7 -28 -7 -32 0 -4 5 -11 6 -17 3 -6 -4 -34 -8 -64 -9 -38 -2 -54 2 -58 12 -3 8 -10 12 -15 9 -5 -3 -14 1 -21 9 -7 8 -16 13 -20 10 -4 -3 -25 12 -47 33 -27 27 -43 54 -54 93 -17 61 -16 153 1 174 8 10 8 15 0 20 -8 5 -7 13 2 28 8 12 20 41 28 64 7 23 24 52 36 64 13 13 24 31 24 41 0 10 7 18 15 18 8 0 19 9 25 20 6 11 14 19 18 19 4 -1 10 0 15 1 4 1 13 3 20 4 6 1 11 8 9 16 -2 9 1 11 10 3 7 -5 24 -10 38 -11 24 -1 90 -61 90 -81 0 -4 -18 -8 -41 -7 -25 1 -43 -3 -48 -12 -4 -8 -12 -13 -17 -13 -5 1 -9 -2 -9 -6 0 -5 -3 -12 -6 -18 -4 -5 -3 -19 1 -30 11 -28 47 -59 54 -46 4 6 16 5 33 -4 26 -14 54 -8 68 15 3 5 11 7 18 4 7 -2 28 9 47 26 26 23 34 39 36 68 2 41 -32 110 -75 152 -33 31 -109 71 -116 60 -3 -5 -17 -3 -31 5 -17 9 -35 10 -55 5 -40 -12 -44 -14 -42 -21 1 -4 -5 -5 -15 -3 -11 3 -42 -21 -92 -71 -41 -42 -75 -79 -75 -83 -1 -4 -16 -37 -34 -74 -18 -37 -30 -71 -27 -76 3 -5 -1 -22 -9 -38 -14 -29 -21 -130 -11 -172 19 -86 50 -145 100 -194 25 -23 49 -43 53 -43 4 -1 22 -9 40 -18 23 -12 34 -14 39 -6 5 8 10 6 16 -5 7 -12 14 -14 26 -7 10 6 23 4 39 -6 22 -14 59 -17 113 -9 14 3 25 5 25 6 0 1 20 4 45 6 25 3 54 6 65 7 21 3 122 40 152 56 10 5 26 12 36 15 11 4 15 11 11 17 -4 8 -3 9 4 5 13 -8 84 38 116 73 11 11 24 21 31 21 20 0 91 92 131 170 34 67 38 84 40 155 0 46 -4 89 -11 100 -6 11 -16 38 -23 61 -6 22 -32 62 -57 89 -25 27 -45 52 -45 56 0 12 -100 75 -175 111 -22 10 -47 22 -55 27 -8 4 -27 7 -42 7 -15 -1 -30 4 -32 10 -3 8 -17 11 -34 8 -18 -3 -34 1 -41 10 -11 13 -5 29 31 91 62 108 87 159 82 167 -2 4 7 23 21 44 14 20 25 44 25 53 0 9 9 31 20 49 11 18 20 37 20 43 0 11 15 48 51 125 10 23 19 46 19 51 0 6 12 37 27 69 15 33 28 64 29 69 1 11 8 28 41 104 12 29 23 61 23 70 0 9 8 32 19 51 10 19 17 43 16 52 -2 9 8 38 21 64 13 26 24 58 24 70 0 13 4 25 9 28 4 3 11 19 14 35 l6 30 38 -16 c51 -22 179 -20 204 3 26 23 44 81 30 98 -6 7 -8 15 -6 18 5 5 -50 51 -90 75 -27 16 -67 33 -91 38 -6 2 -20 6 -31 9 -11 3 -22 4 -24 1z m-94 -212 c-5 -10 -9 -21 -9 -25 -1 -3 -4 -10 -8 -14 -5 -4 -8 -14 -8 -22 0 -8 -14 -37 -31 -64 -16 -28 -28 -55 -26 -61 2 -7 -4 -23 -13 -37 -16 -24 -31 -59 -36 -88 -1 -7 -17 -43 -34 -80 -35 -72 -35 -72 -76 -177 -14 -38 -35 -86 -45 -105 -11 -19 -19 -40 -19 -47 0 -6 -6 -24 -14 -40 -19 -38 -33 -73 -42 -103 -4 -14 -16 -38 -28 -55 -21 -30 -27 -46 -30 -76 -1 -8 -21 -44 -44 -78 -23 -35 -42 -69 -42 -76 0 -7 -19 -34 -42 -59 -30 -32 -52 -47 -73 -49 -17 -2 -36 -6 -42 -10 -5 -3 -21 -4 -34 -2 -13 3 -38 6 -56 7 -18 1 -34 7 -37 15 -3 7 -10 13 -16 13 -16 0 -76 65 -93 103 -9 18 -27 47 -41 66 -14 18 -28 48 -32 65 -3 17 -10 36 -14 41 -18 23 -61 147 -70 198 -4 30 -15 70 -23 90 -9 19 -13 38 -10 41 3 2 1 11 -3 18 -8 13 -9 16 -17 86 -3 23 -9 48 -15 55 -8 11 -21 62 -26 112 -5 45 -19 96 -27 101 -5 3 -7 9 -4 14 3 5 1 20 -4 33 l-10 26 77 1 c169 2 228 5 239 13 6 4 15 3 18 -3 4 -7 11 -8 18 -1 7 5 44 12 82 16 96 10 99 10 113 19 6 4 16 5 21 1 10 -6 369 92 386 105 6 5 53 20 105 35 52 15 99 31 105 36 15 14 39 -16 30 -38z"/>
 </g>

</svg>